PathFileType	4	(X/Y/Z)	Patient4_TMGait_0pt5_02_right_10.trc.trc
DataRate	CameraRate	NumFrames	NumMarkers	Units	OrigDataRate	OrigDataStartFrame	OrigNumFrames
75.675675675676	75.675675675676	4	33	mm	75.675675675676	36	       141
Frame#	Time	Sacral			L.Shoulder			Chest			R.Shoulder			Neck			R.ASIS			L.ASIS			R.Thigh.Superior			R.Thigh.Lateral			R.Thigh.Inferior			R.Patella			L.Thigh.Superior			L.Thigh.Lateral			L.Thigh.Inferior			L.Patella			L.Shank.Superior			L.Shank.Lateral			L.Shank.Inferior			R.Shank.Superior			R.Shank.Lateral			R.Shank.Inferior			R.Heel			R.Midfoot.Superior			R.Midfoot.Lateral			R.Toe			L.Heel			L.Midfoot.Lateral			L.Midfoot.Superior			L.Toe			L.Elbow			L.Wrist			R.Elbow			R.Wrist			
		X1	Y1	Z1	X2	Y2	Z2	X3	Y3	Z3	X4	Y4	Z4	X5	Y5	Z5	X6	Y6	Z6	X7	Y7	Z7	X8	Y8	Z8	X9	Y9	Z9	X10	Y10	Z10	X11	Y11	Z11	X12	Y12	Z12	X13	Y13	Z13	X14	Y14	Z14	X15	Y15	Z15	X16	Y16	Z16	X17	Y17	Z17	X18	Y18	Z18	X19	Y19	Z19	X20	Y20	Z20	X21	Y21	Z21	X22	Y22	Z22	X23	Y23	Z23	X24	Y24	Z24	X25	Y25	Z25	X26	Y26	Z26	X27	Y27	Z27	X28	Y28	Z28	X29	Y29	Z29	X30	Y30	Z30	X31	Y31	Z31	X32	Y32	Z32	X33	Y33	Z33	

36	13.552500000000	622.288716161011	1006.282729637774	487.299932205976	810.829440083157	1437.007986836479	322.785993767876	901.886854124304	1361.244192184093	488.155406023985	808.334512060806	1432.680644117087	658.859843351592	800.560975462734	1494.395292240828	475.118638683252	844.741508465254	938.941430670392	613.068849171189	839.297086617049	958.207223197829	337.818663565842	901.536743464336	747.472729813558	579.227560558880	828.554444084660	634.451763682628	637.456666590769	909.314826687639	587.519473555795	556.286072428164	917.248096453203	498.600963806532	561.293937743046	868.066753301464	735.790985351573	365.050578169992	773.683676954814	627.070117443683	300.494847541061	849.710881138850	538.638332085215	362.720544168633	839.353142851382	456.268576951769	363.735469273867	777.673416897147	397.048570404110	356.692595819283	647.110303192333	337.440790133766	300.670538126296	640.468515498803	212.231699264455	363.481857210858	894.239703639436	409.532215598181	569.028020828211	831.210839941635	302.749466225630	634.090363345049	875.408368881216	209.824695066799	568.964916836287	747.159105295570	43.406669987497	542.778983916345	918.837473111898	97.729564937344	573.089945373394	832.568106075456	36.921742577900	615.045439271604	1040.156896385099	44.309349037947	598.034708842573	456.369067006790	121.190674675395	394.370967774027	524.477696269504	87.259251987321	317.631016336218	623.653012603677	113.593482883033	343.923071456861	720.752687051849	33.191554012685	321.246654181567	834.705186487354	1084.966740284646	200.145862325244	1034.445436508586	917.505555076110	228.455650355635	703.246273740051	1099.183074948041	759.735876132725	762.615503441192	844.470504741787	754.146144547060	
37	13.565714285714	622.983930973847	1006.631067893420	491.040143059671	809.510901652538	1437.584452084377	325.218671584751	902.272963956109	1361.833176702374	489.698371616843	810.339302681154	1433.050076067042	661.318690213676	800.602361004519	1494.885706770715	477.722100125510	846.057519169609	939.402394990612	614.939188343724	839.140243329549	958.694933819309	339.902478375363	901.047682503062	746.650466798675	582.037238334320	826.705208049474	634.355151006658	639.709543656303	907.144690590388	586.834740321701	558.541551128605	914.161139162176	497.928587415824	563.105559256584	872.920724003324	738.106471215739	367.363975351390	782.465275684459	627.003319609027	302.366450056038	861.528613978773	540.161877026690	364.134567288600	852.080800063407	456.425805868486	364.335091041863	788.129704940271	397.474076618552	357.567059080883	655.063619487514	342.986260175157	302.194184650289	644.612231701534	217.706163885408	364.121397835664	890.518532066568	409.031429106342	570.471377077599	826.695033488116	302.516855965424	635.078344441957	870.053369763181	209.481246835990	569.589653637007	740.618963394489	43.526045828007	542.896689039903	912.428268223886	97.619528192711	573.329883927914	826.007563631280	36.911684485001	615.163020039610	1033.667455692328	43.739942235622	598.267716530172	457.070169656291	135.691307415434	394.951616523975	523.169873863899	98.070465240266	318.096615232270	623.825513088395	118.402200546679	344.324866347379	715.202977022711	32.325854132173	321.624717085480	829.705627602055	1084.611552380486	203.983723930821	1019.769077896463	905.257428879974	228.874485432900	712.219405379532	1098.026378631310	765.295872362257	785.227734452313	847.013576049560	757.516672110825	
38	13.578928571429	623.481405406274	1006.833230704692	494.662042135886	807.958359764055	1437.959432488711	327.452004978557	902.475141762870	1362.282291712942	491.027199394156	812.148135569545	1433.246957780217	663.559520278989	800.468031486397	1495.224387178143	480.130155716742	847.162185647778	939.763850223788	616.746357829564	838.874798639144	958.977331307865	341.971117566423	900.431203359754	745.809714784979	584.828057216912	824.842405852865	634.203952927882	641.965534763637	904.949299292354	586.135854091165	560.805149891127	911.054461084271	497.227690860046	564.976289365985	877.669476554697	740.521218494729	369.641515742946	791.232835472627	627.180913397957	304.058812472011	873.205355669169	542.075909155002	365.449212102093	864.804359684276	457.069021481935	364.953805363219	798.817755057604	398.265131697097	358.386569506423	663.510241261665	348.739745702234	303.656618123773	649.376159748100	223.529892439733	364.823531577880	886.772242913488	408.480128770206	571.953859900721	822.116058810863	302.234532133365	636.050517382732	864.670925707355	209.093368547296	570.242261452455	734.012738334595	43.644136121158	543.029930703799	905.976216738614	97.473243713422	573.579873361625	819.384085045466	36.883138491767	615.289153008100	1027.122509203298	43.120973309840	598.483463525762	458.809399666940	150.365588158528	395.612213174048	522.875679454224	109.346594750089	318.618665560907	624.738268606357	123.771609198813	344.859765914049	710.422732024405	31.640003609333	321.977997268270	824.489979819512	1084.121914581499	207.576098753240	1003.907944956399	893.359721841697	228.858503125440	721.555147015628	1096.880038035185	770.929454565843	808.164751007814	850.364515209798	760.854522094106	
39	13.592142857143	623.781201630322	1006.929208545426	498.145216086166	806.242554295254	1438.157348461827	329.473526764453	902.507729717690	1362.616363343999	492.155714139001	813.739362481842	1433.326691826775	665.567040199229	800.201046320808	1495.445159177742	482.311158344024	848.047110647943	940.052741882782	618.527657030187	838.464184463913	959.090009192718	344.033250450128	899.724143884156	745.009778360204	587.539528278541	823.004762222350	634.022398958152	644.169555255497	902.769285479179	585.447915890787	563.024160235558	907.968456146910	496.516059902493	566.840040150901	882.185841906320	743.061278559461	371.891490206965	799.797654290415	627.684501005790	305.567425593851	884.512599785469	544.430959592414	366.655280408075	877.319803748510	458.257684882100	365.556752643630	809.568206602996	399.470483106052	359.125854731101	672.299493389469	354.581979923978	305.028830805635	654.746094214610	229.528936015290	365.548997588854	883.035339733328	407.902726995186	573.423559290772	817.520464072457	301.936114761463	636.984591612037	859.287947882110	208.686596041065	570.898271472866	727.369164124556	43.768402243303	543.180680933503	899.501914514722	97.314991538949	573.836602338697	812.727628143345	36.851089233925	615.423334894469	1020.544723285714	42.499858646506	598.684011838511	461.634452305271	164.636341432504	396.350485616182	523.740360704817	120.630216695771	319.186706744065	626.530847606349	129.521060696823	345.474071100378	706.804645018246	31.251195027334	322.247573993842	819.002897565497	1083.518908761327	210.921732050101	986.908814125846	882.022511698841	228.431046930510	731.298172252038	1095.783933848436	776.526332486039	831.308666183000	854.558226587755	764.081111483440	
